# This file uses centimeters as units for non-parametric coordinates.

mtllib S_paper.mtl
g default
v -109.249084 0.000004 -73.121933
v -105.976593 0.000004 -82.581993
v -112.643677 0.000004 -84.888313
v -115.916168 0.000004 -75.428253
v -137.012695 0.000004 -70.614685
v -141.473587 0.000004 -76.080002
v -149.228424 0.000004 -69.750366
v -144.767532 0.000004 -64.285049
v -139.577332 0.000004 -86.160408
v -137.226013 0.000004 -92.811760
v -146.663773 0.000004 -96.148087
v -149.015091 0.000004 -89.496727
v -138.016891 0.000004 -50.248222
v -141.650787 0.000004 -59.575432
v -148.224228 0.000004 -57.014416
v -144.590347 0.000004 -47.687206
vt 0.118431 0.782713
vt 0.118431 0.905075
vt 0.012845 0.905075
vt 0.012845 0.782713
vt 0.012845 0.782713
vt 0.118431 0.782713
vt 0.118431 0.905075
vt 0.012845 0.905075
vt 0.012845 0.782713
vt 0.118431 0.782713
vt 0.118431 0.905075
vt 0.012845 0.905075
vt 0.118431 0.782713
vt 0.118431 0.905075
vt 0.012845 0.905075
vt 0.012845 0.782713
vn 0.000000 1.000000 0.000000
vn 0.000000 1.000000 0.000000
vn 0.000000 1.000000 0.000000
vn 0.000000 1.000000 0.000000
vn 0.000000 1.000000 0.000000
vn 0.000000 1.000000 0.000000
vn 0.000000 1.000000 0.000000
vn 0.000000 1.000000 0.000000
vn 0.000000 1.000000 0.000000
vn 0.000000 1.000000 0.000000
vn 0.000000 1.000000 0.000000
vn 0.000000 1.000000 0.000000
vn 0.000000 1.000000 0.000000
vn 0.000000 1.000000 0.000000
vn 0.000000 1.000000 0.000000
vn 0.000000 1.000000 0.000000
s off
g Asset4_1:pPlane12
usemtl Asset4_1:initialShadingGroup
f 1/1/1 2/2/2 3/3/3 4/4/4
f 5/5/5 6/6/6 7/7/7 8/8/8
f 9/9/9 10/10/10 11/11/11 12/12/12
f 13/13/13 14/14/14 15/15/15 16/16/16
