# This file uses centimeters as units for non-parametric coordinates.

mtllib first_floor.mtl
g default
v -500.000000 335.044342 -1283.580444
v -500.000000 93.912628 -1283.580444
v 300.090108 93.912628 -1283.580444
v 300.090108 335.044342 -1283.580444
v 300.090108 84.639069 -1275.673950
v -500.000000 84.639069 -1275.673950
v -500.000000 35.044342 -1275.673950
v 300.090108 35.044342 -1275.673950
v 300.090108 91.178986 -1282.098022
v -500.000000 91.178986 -1282.098022
v -500.000000 88.283875 -1277.650269
v 300.090108 88.283875 -1277.650269
v -500.000000 86.712189 -1276.199829
v 300.090108 86.712189 -1276.199829
v -500.000000 92.357819 -1283.186157
v 300.090108 92.357819 -1283.186157
vt 0.889620 0.312505
vt 0.890261 0.494599
vt 0.060938 0.495961
vt 0.060297 0.313867
vt 0.889454 0.265392
vt 0.889586 0.302845
vt 0.060263 0.304207
vt 0.060131 0.266754
vt 0.889597 0.306075
vt 0.889611 0.310082
vt 0.060288 0.311444
vt 0.060274 0.307437
vt 0.889592 0.304460
vt 0.060269 0.305822
vt 0.889616 0.311294
vt 0.060293 0.312656
vn 0.000000 0.001625 0.999999
vn 0.000000 0.000000 1.000000
vn 0.000000 0.000000 1.000000
vn 0.000000 0.001625 0.999999
vn 0.000000 0.000000 1.000000
vn 0.000000 0.010178 0.999948
vn 0.000000 0.010178 0.999948
vn 0.000000 0.000000 1.000000
vn 0.000000 0.797191 0.603727
vn 0.000000 0.805409 0.592719
vn 0.000000 0.805409 0.592719
vn 0.000000 0.797191 0.603727
vn 0.000000 0.476668 0.879083
vn 0.000000 0.797191 0.603727
vn 0.000000 0.797191 0.603727
vn 0.000000 0.476668 0.879083
vn 0.000000 0.010178 0.999948
vn 0.000000 0.476668 0.879083
vn 0.000000 0.476668 0.879083
vn 0.000000 0.010178 0.999948
vn 0.000000 0.476708 0.879062
vn 0.000000 0.001625 0.999999
vn 0.000000 0.001625 0.999999
vn 0.000000 0.476708 0.879062
vn 0.000000 0.805409 0.592719
vn 0.000000 0.476708 0.879062
vn 0.000000 0.476708 0.879062
vn 0.000000 0.805409 0.592719
s off
g polySurface6 polySurface3
usemtl initialShadingGroup
f 3/1/1 4/2/2 1/3/3 2/4/4
f 8/5/5 5/6/6 6/7/7 7/8/8
f 12/9/9 9/10/10 10/11/11 11/12/12
f 14/13/13 12/9/14 11/12/15 13/14/16
f 5/6/17 14/13/18 13/14/19 6/7/20
f 16/15/21 3/1/22 2/4/23 15/16/24
f 9/10/25 16/15/26 15/16/27 10/11/28
