# This file uses centimeters as units for non-parametric coordinates.

mtllib second_floor.mtl
g default
v -500.000000 635.044342 -1283.580444
v -500.000000 335.044342 -1283.580444
v 300.090175 335.044342 -1283.580444
v 300.090175 635.044342 -1283.580444
vt 0.889752 0.504587
vt 0.889243 0.722049
vt 0.061762 0.721213
vt 0.062271 0.503751
vn 0.000000 0.000000 1.000000
vn 0.000000 0.000000 1.000000
vn 0.000000 0.000000 1.000000
vn 0.000000 0.000000 1.000000
s off
g polySurface7 polySurface3
usemtl initialShadingGroup
f 3/1/1 4/2/2 1/3/3 2/4/4
