# This file uses centimeters as units for non-parametric coordinates.

mtllib wall_small.mtl
g default
v -5000.000000 0.000000 -2050.000000
v -5000.000000 0.000000 -2100.000000
v -5000.000000 236.136292 -2100.000000
v -5000.000000 236.136292 -2050.000000
v -4250.000000 250.000000 -2050.000000
v -5000.000000 250.000000 -2050.000000
v -5000.000000 250.000000 -2100.000000
v -4250.000000 250.000000 -2100.000000
v -4250.000000 236.136292 -2100.000000
v -4250.000000 0.000000 -2100.000000
v -5000.000000 236.136292 -2119.821777
v -4250.000000 236.136292 -2119.821777
v -4250.000000 250.000000 -2119.821777
v -5000.000000 250.000000 -2119.821777
v -5000.000000 0.000000 -2050.000000
v -5000.000000 0.000000 -2000.000000
v -5000.000000 236.136292 -2000.000000
v -5000.000000 236.136292 -2050.000000
v -4250.000000 250.000000 -2050.000000
v -5000.000000 250.000000 -2050.000000
v -5000.000000 250.000000 -2000.000000
v -4250.000000 250.000000 -2000.000000
v -4250.000000 236.136292 -2000.000000
v -4250.000000 0.000000 -2000.000000
v -5000.000000 236.136292 -1980.178223
v -4250.000000 236.136292 -1980.178223
v -4250.000000 250.000000 -1980.178223
v -5000.000000 250.000000 -1980.178223
vt 0.902736 0.608645
vt 0.976801 0.608645
vt 0.976801 0.959131
vt 0.902736 0.959131
vt 0.059000 0.211615
vt 0.058984 0.243475
vt 0.870891 0.244025
vt 0.870907 0.212165
vt 0.870924 0.178069
vt 0.870999 0.027602
vt 0.059092 0.027052
vt 0.059017 0.177519
vt 0.870913 0.199534
vt 0.870917 0.190700
vt 0.059011 0.190150
vt 0.059006 0.198984
vt 0.874556 0.959131
vt 0.902736 0.979667
vt 0.874556 0.979667
vt 0.976801 0.979667
vt 0.902736 0.608645
vt 0.902736 0.959131
vt 0.976801 0.959131
vt 0.976801 0.608645
vt 0.059000 0.211615
vt 0.870907 0.212165
vt 0.870891 0.244025
vt 0.058984 0.243475
vt 0.870924 0.178069
vt 0.059017 0.177519
vt 0.059092 0.027052
vt 0.870999 0.027602
vt 0.870913 0.199534
vt 0.059006 0.198984
vt 0.059011 0.190150
vt 0.870917 0.190700
vt 0.874556 0.959131
vt 0.874556 0.979667
vt 0.902736 0.979667
vt 0.976801 0.979667
vn -1.000000 0.000000 -0.000000
vn -1.000000 0.000000 -0.000000
vn -1.000000 0.000000 -0.000000
vn -1.000000 0.000000 -0.000000
vn 0.000000 1.000000 0.000000
vn 0.000000 1.000000 0.000000
vn 0.000000 1.000000 0.000000
vn 0.000000 1.000000 0.000000
vn 0.000000 0.000000 -1.000000
vn 0.000000 0.000000 -1.000000
vn 0.000000 0.000000 -1.000000
vn 0.000000 0.000000 -1.000000
vn 0.000000 0.000000 -1.000000
vn 0.000000 0.000000 -1.000000
vn 0.000000 0.000000 -1.000000
vn 0.000000 0.000000 -1.000000
vn 0.000000 -1.000000 0.000000
vn 0.000000 -1.000000 0.000000
vn 0.000000 -1.000000 0.000000
vn 0.000000 -1.000000 0.000000
vn 0.000000 1.000000 0.000000
vn 0.000000 1.000000 0.000000
vn 0.000000 1.000000 0.000000
vn 0.000000 1.000000 0.000000
vn -1.000000 0.000000 -0.000000
vn -1.000000 0.000000 -0.000000
vn -1.000000 0.000000 -0.000000
vn -1.000000 0.000000 -0.000000
vn -1.000000 0.000000 -0.000000
vn -1.000000 0.000000 -0.000000
vn -1.000000 0.000000 -0.000000
vn -1.000000 0.000000 -0.000000
vn -1.000000 0.000000 -0.000000
vn -1.000000 0.000000 -0.000000
vn -1.000000 0.000000 -0.000000
vn -1.000000 0.000000 -0.000000
vn 0.000000 1.000000 0.000000
vn 0.000000 1.000000 0.000000
vn 0.000000 1.000000 0.000000
vn 0.000000 1.000000 0.000000
vn -0.000000 0.000000 1.000000
vn -0.000000 0.000000 1.000000
vn -0.000000 0.000000 1.000000
vn -0.000000 0.000000 1.000000
vn -0.000000 0.000000 1.000000
vn -0.000000 0.000000 1.000000
vn -0.000000 0.000000 1.000000
vn -0.000000 0.000000 1.000000
vn 0.000000 -1.000000 0.000000
vn 0.000000 -1.000000 0.000000
vn 0.000000 -1.000000 0.000000
vn 0.000000 -1.000000 0.000000
vn 0.000000 1.000000 0.000000
vn 0.000000 1.000000 0.000000
vn 0.000000 1.000000 0.000000
vn 0.000000 1.000000 0.000000
vn -1.000000 0.000000 -0.000000
vn -1.000000 0.000000 -0.000000
vn -1.000000 0.000000 -0.000000
vn -1.000000 0.000000 -0.000000
vn -1.000000 0.000000 -0.000000
vn -1.000000 0.000000 -0.000000
vn -1.000000 0.000000 -0.000000
vn -1.000000 0.000000 -0.000000
s off
g polySurface465
usemtl _lambert3SG
f 2/1/1 1/2/2 4/3/3 3/4/4
f 7/5/5 6/6/6 5/7/7 8/8/8
f 9/9/9 10/10/10 2/11/11 3/12/12
f 13/13/13 12/14/14 11/15/15 14/16/16
f 12/14/17 9/9/18 3/12/19 11/15/20
f 14/16/21 7/5/22 8/8/23 13/13/24
f 11/17/25 3/4/26 7/18/27 14/19/28
f 3/4/29 4/3/30 6/20/31 7/18/32
f 16/21/33 17/22/34 18/23/35 15/24/36
f 21/25/37 22/26/38 19/27/39 20/28/40
f 23/29/41 17/30/42 16/31/43 24/32/44
f 27/33/45 28/34/46 25/35/47 26/36/48
f 26/36/49 25/35/50 17/30/51 23/29/52
f 28/34/53 27/33/54 22/26/55 21/25/56
f 25/37/57 28/38/58 21/39/59 17/22/60
f 17/22/61 21/39/62 20/40/63 18/23/64
g default
v -4900.000000 0.000000 -650.000061
v -4900.000000 236.136292 -650.000061
v -4950.000000 250.000000 -1400.000000
v -4950.000000 250.000000 -650.000061
v -4900.000000 250.000000 -650.000061
v -4900.000000 250.000000 -1400.000000
v -4950.000000 236.136292 -1400.000000
v -4900.000000 236.136292 -1400.000000
v -4900.000000 0.000000 -1400.000000
v -4950.000000 0.000000 -1400.000000
v -4880.178223 236.136292 -650.000061
v -4880.178223 236.136292 -1400.000000
v -4880.178223 250.000000 -1400.000000
v -4880.178223 250.000000 -650.000061
v -5000.000000 0.000000 -650.000061
v -5000.000000 236.136292 -650.000061
v -4950.000000 250.000000 -1400.000000
v -4950.000000 250.000000 -650.000061
v -5000.000000 250.000000 -650.000061
v -5000.000000 250.000000 -1400.000000
v -4950.000000 236.136292 -1400.000000
v -5000.000000 236.136292 -1400.000000
v -5000.000000 0.000000 -1400.000000
v -4950.000000 0.000000 -1400.000000
v -5019.821777 236.136292 -650.000061
v -5019.821777 236.136292 -1400.000000
v -5019.821777 250.000000 -1400.000000
v -5019.821777 250.000000 -650.000061
v -4950.000000 0.000000 99.999939
v -4900.000000 0.000000 99.999939
v -4900.000000 236.136292 99.999939
v -4950.000000 236.136292 99.999939
v -4950.000000 250.000000 -650.000061
v -4950.000000 250.000000 99.999939
v -4900.000000 250.000000 99.999939
v -4900.000000 250.000000 -650.000061
v -4900.000000 236.136292 -650.000061
v -4900.000000 0.000000 -650.000061
v -4880.178223 236.136292 99.999939
v -4880.178223 236.136292 -650.000061
v -4880.178223 250.000000 -650.000061
v -4880.178223 250.000000 99.999939
v -4950.000000 0.000000 99.999939
v -5000.000000 0.000000 99.999939
v -5000.000000 236.136292 99.999939
v -4950.000000 236.136292 99.999939
v -4950.000000 250.000000 -650.000061
v -4950.000000 250.000000 99.999939
v -5000.000000 250.000000 99.999939
v -5000.000000 250.000000 -650.000061
v -5000.000000 236.136292 -650.000061
v -5000.000000 0.000000 -650.000061
v -5019.821777 236.136292 99.999939
v -5019.821777 236.136292 -650.000061
v -5019.821777 250.000000 -650.000061
v -5019.821777 250.000000 99.999939
vt 0.091296 0.211615
vt 0.870907 0.212165
vt 0.870891 0.244025
vt 0.091280 0.243475
vt 0.902736 0.959131
vt 0.902736 0.608645
vt 0.976801 0.608645
vt 0.976801 0.959131
vt 0.870924 0.178069
vt 0.091313 0.177519
vt 0.091388 0.027052
vt 0.870999 0.027602
vt 0.902736 0.979667
vt 0.976801 0.979667
vt 0.870913 0.199534
vt 0.091302 0.198984
vt 0.091307 0.190150
vt 0.870917 0.190700
vt 0.874556 0.979667
vt 0.874556 0.959131
vt 0.091296 0.211615
vt 0.091280 0.243475
vt 0.870891 0.244025
vt 0.870907 0.212165
vt 0.902736 0.959131
vt 0.976801 0.959131
vt 0.976801 0.608645
vt 0.902736 0.608645
vt 0.870924 0.178069
vt 0.870999 0.027602
vt 0.091388 0.027052
vt 0.091313 0.177519
vt 0.902736 0.979667
vt 0.976801 0.979667
vt 0.870913 0.199534
vt 0.870917 0.190700
vt 0.091307 0.190150
vt 0.091302 0.198984
vt 0.874556 0.979667
vt 0.874556 0.959131
vt 0.902736 0.608645
vt 0.902736 0.959131
vt 0.976801 0.959131
vt 0.976801 0.608645
vt 0.059000 0.211615
vt 0.870907 0.212165
vt 0.870891 0.244025
vt 0.058984 0.243475
vt 0.870924 0.178069
vt 0.059017 0.177519
vt 0.059092 0.027052
vt 0.870999 0.027602
vt 0.870913 0.199534
vt 0.059006 0.198984
vt 0.059011 0.190150
vt 0.870917 0.190700
vt 0.874556 0.959131
vt 0.874556 0.979667
vt 0.902736 0.979667
vt 0.976801 0.979667
vt 0.902736 0.608645
vt 0.976801 0.608645
vt 0.976801 0.959131
vt 0.902736 0.959131
vt 0.059000 0.211615
vt 0.058984 0.243475
vt 0.870891 0.244025
vt 0.870907 0.212165
vt 0.870924 0.178069
vt 0.870999 0.027602
vt 0.059092 0.027052
vt 0.059017 0.177519
vt 0.870913 0.199534
vt 0.870917 0.190700
vt 0.059011 0.190150
vt 0.059006 0.198984
vt 0.874556 0.959131
vt 0.902736 0.979667
vt 0.874556 0.979667
vt 0.976801 0.979667
vn 0.000000 1.000000 0.000000
vn 0.000000 1.000000 0.000000
vn 0.000000 1.000000 0.000000
vn 0.000000 1.000000 0.000000
vn 0.000000 0.000000 -1.000000
vn 0.000000 0.000000 -1.000000
vn 0.000000 0.000000 -1.000000
vn 0.000000 0.000000 -1.000000
vn 1.000000 0.000000 0.000000
vn 1.000000 0.000000 0.000000
vn 1.000000 0.000000 0.000000
vn 1.000000 0.000000 0.000000
vn 0.000000 0.000000 -1.000000
vn 0.000000 0.000000 -1.000000
vn 0.000000 0.000000 -1.000000
vn 0.000000 0.000000 -1.000000
vn 1.000000 0.000000 0.000000
vn 1.000000 0.000000 0.000000
vn 1.000000 0.000000 0.000000
vn 1.000000 0.000000 0.000000
vn 0.000000 -1.000000 0.000000
vn 0.000000 -1.000000 0.000000
vn 0.000000 -1.000000 0.000000
vn 0.000000 -1.000000 0.000000
vn 0.000000 0.000000 -1.000000
vn 0.000000 0.000000 -1.000000
vn 0.000000 0.000000 -1.000000
vn 0.000000 0.000000 -1.000000
vn 0.000000 1.000000 0.000000
vn 0.000000 1.000000 0.000000
vn 0.000000 1.000000 0.000000
vn 0.000000 1.000000 0.000000
vn 0.000000 1.000000 0.000000
vn 0.000000 1.000000 0.000000
vn 0.000000 1.000000 0.000000
vn 0.000000 1.000000 0.000000
vn 0.000000 0.000000 -1.000000
vn 0.000000 0.000000 -1.000000
vn 0.000000 0.000000 -1.000000
vn 0.000000 0.000000 -1.000000
vn -1.000000 0.000000 0.000000
vn -1.000000 0.000000 0.000000
vn -1.000000 0.000000 0.000000
vn -1.000000 0.000000 0.000000
vn 0.000000 0.000000 -1.000000
vn 0.000000 0.000000 -1.000000
vn 0.000000 0.000000 -1.000000
vn 0.000000 0.000000 -1.000000
vn -1.000000 0.000000 0.000000
vn -1.000000 0.000000 0.000000
vn -1.000000 0.000000 0.000000
vn -1.000000 0.000000 0.000000
vn 0.000000 -1.000000 0.000000
vn 0.000000 -1.000000 0.000000
vn 0.000000 -1.000000 0.000000
vn 0.000000 -1.000000 0.000000
vn 0.000000 0.000000 -1.000000
vn 0.000000 0.000000 -1.000000
vn 0.000000 0.000000 -1.000000
vn 0.000000 0.000000 -1.000000
vn 0.000000 1.000000 0.000000
vn 0.000000 1.000000 0.000000
vn 0.000000 1.000000 0.000000
vn 0.000000 1.000000 0.000000
vn 0.000000 0.000000 1.000000
vn 0.000000 0.000000 1.000000
vn 0.000000 0.000000 1.000000
vn 0.000000 0.000000 1.000000
vn 0.000000 1.000000 0.000000
vn 0.000000 1.000000 0.000000
vn 0.000000 1.000000 0.000000
vn 0.000000 1.000000 0.000000
vn 1.000000 0.000000 0.000000
vn 1.000000 0.000000 0.000000
vn 1.000000 0.000000 0.000000
vn 1.000000 0.000000 0.000000
vn 1.000000 0.000000 0.000000
vn 1.000000 0.000000 0.000000
vn 1.000000 0.000000 0.000000
vn 1.000000 0.000000 0.000000
vn 0.000000 -1.000000 0.000000
vn 0.000000 -1.000000 0.000000
vn 0.000000 -1.000000 0.000000
vn 0.000000 -1.000000 0.000000
vn 0.000000 1.000000 0.000000
vn 0.000000 1.000000 0.000000
vn 0.000000 1.000000 0.000000
vn 0.000000 1.000000 0.000000
vn 0.000000 0.000000 1.000000
vn 0.000000 0.000000 1.000000
vn 0.000000 0.000000 1.000000
vn 0.000000 0.000000 1.000000
vn 0.000000 0.000000 1.000000
vn 0.000000 0.000000 1.000000
vn 0.000000 0.000000 1.000000
vn 0.000000 0.000000 1.000000
vn 0.000000 0.000000 1.000000
vn 0.000000 0.000000 1.000000
vn 0.000000 0.000000 1.000000
vn 0.000000 0.000000 1.000000
vn 0.000000 1.000000 0.000000
vn 0.000000 1.000000 0.000000
vn 0.000000 1.000000 0.000000
vn 0.000000 1.000000 0.000000
vn -1.000000 0.000000 0.000000
vn -1.000000 0.000000 0.000000
vn -1.000000 0.000000 0.000000
vn -1.000000 0.000000 0.000000
vn -1.000000 0.000000 0.000000
vn -1.000000 0.000000 0.000000
vn -1.000000 0.000000 0.000000
vn -1.000000 0.000000 0.000000
vn 0.000000 -1.000000 0.000000
vn 0.000000 -1.000000 0.000000
vn 0.000000 -1.000000 0.000000
vn 0.000000 -1.000000 0.000000
vn 0.000000 1.000000 0.000000
vn 0.000000 1.000000 0.000000
vn 0.000000 1.000000 0.000000
vn 0.000000 1.000000 0.000000
vn 0.000000 0.000000 1.000000
vn 0.000000 0.000000 1.000000
vn 0.000000 0.000000 1.000000
vn 0.000000 0.000000 1.000000
vn 0.000000 0.000000 1.000000
vn 0.000000 0.000000 1.000000
vn 0.000000 0.000000 1.000000
vn 0.000000 0.000000 1.000000
s off
g polySurface470
usemtl _lambert3SG
f 33/41/65 34/42/66 31/43/67 32/44/68
f 36/45/69 37/46/70 38/47/71 35/48/72
f 36/49/73 30/50/74 29/51/75 37/52/76
f 34/53/77 36/45/78 35/48/79 31/54/80
f 41/55/81 42/56/82 39/57/83 40/58/84
f 40/58/85 39/57/86 30/50/87 36/49/88
f 41/59/89 40/60/90 36/45/91 34/53/92
f 42/56/93 41/55/94 34/42/95 33/41/96
f 47/61/97 46/62/98 45/63/99 48/64/100
f 50/65/101 49/66/102 52/67/103 51/68/104
f 50/69/105 51/70/106 43/71/107 44/72/108
f 48/73/109 45/74/110 49/66/111 50/65/112
f 55/75/113 54/76/114 53/77/115 56/78/116
f 54/76/117 50/69/118 44/72/119 53/77/120
f 55/79/121 48/73/122 50/65/123 54/80/124
f 56/78/125 47/61/126 48/64/127 55/75/128
f 58/81/129 59/82/130 60/83/131 57/84/132
f 63/85/133 64/86/134 61/87/135 62/88/136
f 65/89/137 59/90/138 58/91/139 66/92/140
f 69/93/141 70/94/142 67/95/143 68/96/144
f 68/96/145 67/95/146 59/90/147 65/89/148
f 70/94/149 69/93/150 64/86/151 63/85/152
f 67/97/153 70/98/154 63/99/155 59/82/156
f 59/82/157 63/99/158 62/100/159 60/83/160
f 72/101/161 71/102/162 74/103/163 73/104/164
f 77/105/165 76/106/166 75/107/167 78/108/168
f 79/109/169 80/110/170 72/111/171 73/112/172
f 83/113/173 82/114/174 81/115/175 84/116/176
f 82/114/177 79/109/178 73/112/179 81/115/180
f 84/116/181 77/105/182 78/108/183 83/113/184
f 81/117/185 73/104/186 77/118/187 84/119/188
f 73/104/189 74/103/190 76/120/191 77/118/192
