# 3ds Max Wavefront OBJ Exporter v0.99 - (c)2007 guruware
# File Created: 30.03.2025 20:15:21

mtllib lightVolume.mtl

#
# object Cylinder001
#

v  0.777631 -0.000000 0.000000
v  0.730734 0.265966 -0.000000
v  3.678865 1.338996 -8.974284
v  3.914967 -0.000002 -8.974284
v  0.595700 0.499852 -0.000000
v  2.999039 2.516490 -8.974285
v  0.388815 0.673449 -0.000000
v  1.957483 3.390459 -8.974285
v  0.135034 0.765818 -0.000000
v  0.679827 3.855488 -8.974285
v  -0.135035 0.765818 -0.000000
v  -0.679827 3.855488 -8.974285
v  -0.388816 0.673449 -0.000000
v  -1.957484 3.390459 -8.974285
v  -0.595701 0.499852 -0.000000
v  -2.999039 2.516490 -8.974285
v  -0.730735 0.265966 -0.000000
v  -3.678865 1.338996 -8.974284
v  -0.777632 0.000000 -0.000000
v  -3.914967 -0.000001 -8.974284
v  -0.730735 -0.265966 0.000000
v  -3.678866 -1.338999 -8.974284
v  -0.595701 -0.499852 0.000000
v  -2.999039 -2.516493 -8.974284
v  -0.388817 -0.673449 0.000000
v  -1.957485 -3.390462 -8.974284
v  -0.135035 -0.765818 0.000000
v  -0.679829 -3.855491 -8.974284
v  0.135033 -0.765818 0.000000
v  0.679825 -3.855492 -8.974284
v  0.388815 -0.673449 0.000000
v  1.957482 -3.390464 -8.974284
v  0.595699 -0.499853 0.000000
v  2.999037 -2.516496 -8.974284
v  0.730734 -0.265966 0.000000
v  3.678865 -1.339002 -8.974284
# 36 vertices

vn 0.943978 0.330007 0.000000
vn 0.887050 0.330007 -0.322860
vn 0.723129 0.330007 -0.606778
vn 0.723130 0.330007 -0.606778
vn 0.471989 0.330007 -0.817509
vn 0.163920 0.330007 -0.929637
vn -0.163920 0.330007 -0.929637
vn -0.471990 0.330007 -0.817509
vn -0.471989 0.330007 -0.817509
vn -0.723130 0.330007 -0.606778
vn -0.887050 0.330007 -0.322860
vn -0.943978 0.330007 -0.000000
vn -0.887050 0.330007 0.322859
vn -0.723130 0.330007 0.606778
vn -0.723130 0.330007 0.606777
vn -0.471989 0.330007 0.817509
vn -0.163920 0.330007 0.929637
vn -0.163921 0.330007 0.929637
vn 0.163919 0.330007 0.929637
vn 0.163920 0.330007 0.929637
vn 0.471989 0.330007 0.817510
vn 0.723129 0.330007 0.606778
vn 0.887049 0.330007 0.322860
# 23 vertex normals

vt 0.750000 0.000000 1.000000
vt 0.805556 0.000000 1.000000
vt 0.805556 1.000000 1.000000
vt 0.750000 1.000000 1.000000
vt 0.861111 0.000000 1.000000
vt 0.861111 1.000000 1.000000
vt 0.916667 0.000000 1.000000
vt 0.916667 1.000000 1.000000
vt 0.972222 0.000000 1.000000
vt 0.972222 1.000000 1.000000
vt -0.027778 0.000000 1.000000
vt 0.027778 0.000000 1.000000
vt 0.027778 1.000000 1.000000
vt -0.027778 1.000000 1.000000
vt 0.083333 0.000000 1.000000
vt 0.083333 1.000000 1.000000
vt 0.138889 0.000000 1.000000
vt 0.138889 1.000000 1.000000
vt 0.194444 0.000000 1.000000
vt 0.194444 1.000000 1.000000
vt 0.250000 0.000000 1.000000
vt 0.250000 1.000000 1.000000
vt 0.305556 0.000000 1.000000
vt 0.305556 1.000000 1.000000
vt 0.361111 0.000000 1.000000
vt 0.361111 1.000000 1.000000
vt 0.416667 0.000000 1.000000
vt 0.416667 1.000000 1.000000
vt 0.472222 0.000000 1.000000
vt 0.472222 1.000000 1.000000
vt 0.527778 0.000000 1.000000
vt 0.527778 1.000000 1.000000
vt 0.583333 0.000000 1.000000
vt 0.583333 1.000000 1.000000
vt 0.638889 0.000000 1.000000
vt 0.638889 1.000000 1.000000
vt 0.694444 0.000000 1.000000
vt 0.694444 1.000000 1.000000
# 38 texture coords

o Cylinder001
g Cylinder001
usemtl wire_138008110
s 1
f 4/4/1 3/3/2 2/2/2 1/1/1 
f 3/3/2 6/6/4 5/5/3 2/2/2 
f 6/6/4 8/8/5 7/7/5 5/5/3 
f 8/8/5 10/10/6 9/9/6 7/7/5 
f 10/14/6 12/13/7 11/12/7 9/11/6 
f 12/13/7 14/16/9 13/15/8 11/12/7 
f 14/16/9 16/18/10 15/17/10 13/15/8 
f 16/18/10 18/20/11 17/19/11 15/17/10 
f 18/20/11 20/22/12 19/21/12 17/19/11 
f 20/22/12 22/24/13 21/23/13 19/21/12 
f 22/24/13 24/26/15 23/25/14 21/23/13 
f 24/26/15 26/28/16 25/27/16 23/25/14 
f 26/28/16 28/30/18 27/29/17 25/27/16 
f 28/30/18 30/32/20 29/31/19 27/29/17 
f 30/32/20 32/34/21 31/33/21 29/31/19 
f 32/34/21 34/36/22 33/35/22 31/33/21 
f 34/36/22 36/38/23 35/37/23 33/35/22 
f 36/38/23 4/4/1 1/1/1 35/37/23 
# 18 polygons

