# This file uses centimeters as units for non-parametric coordinates.

mtllib L_paper.mtl
g default
v -231.803360 0.000004 12.137215
v -225.994629 0.000004 -8.043438
v -240.217178 0.000004 -12.137215
v -246.025909 0.000004 8.043442
v -219.876770 0.000004 -52.008812
v -213.011490 0.000004 -71.854919
v -226.998260 0.000004 -76.693306
v -233.863556 0.000004 -56.847202
v -239.851486 0.000004 -30.019989
v -244.796524 0.000004 -50.429462
v -259.180359 0.000004 -46.944389
v -254.235306 0.000004 -26.534916
v -266.049866 0.000004 1.455044
v -256.352081 0.000004 -9.724991
v -272.215637 0.000004 -23.485352
v -281.913422 0.000004 -12.305321
v -209.722672 -0.301209 -4.141590
v -216.899185 -0.301209 -17.085224
v -235.265152 -0.301209 -6.902328
v -228.088638 -0.301209 6.041302
v -263.541107 0.000004 -34.798393
v -256.675842 0.000004 -54.644497
v -270.662598 0.000004 -59.482887
v -277.527893 0.000004 -39.636784
vt 0.368855 0.782713
vt 0.368855 0.905075
vt 0.263269 0.905075
vt 0.263269 0.782713
vt 0.368855 0.782713
vt 0.368855 0.905075
vt 0.263269 0.905075
vt 0.263269 0.782713
vt 0.368855 0.782713
vt 0.368855 0.905075
vt 0.263269 0.905075
vt 0.263269 0.782713
vt 0.263269 0.782713
vt 0.368855 0.782713
vt 0.368855 0.905075
vt 0.263269 0.905075
vt 0.368855 0.905075
vt 0.263269 0.905075
vt 0.263269 0.782713
vt 0.368855 0.782713
vt 0.368855 0.782713
vt 0.368855 0.905075
vt 0.263269 0.905075
vt 0.263269 0.782713
vn 0.000000 1.000000 0.000000
vn 0.000000 1.000000 0.000000
vn 0.000000 1.000000 0.000000
vn 0.000000 1.000000 0.000000
vn 0.000000 1.000000 0.000000
vn 0.000000 1.000000 0.000000
vn 0.000000 1.000000 0.000000
vn 0.000000 1.000000 0.000000
vn 0.000000 1.000000 0.000000
vn 0.000000 1.000000 0.000000
vn 0.000000 1.000000 0.000000
vn 0.000000 1.000000 0.000000
vn 0.000000 1.000000 0.000000
vn 0.000000 1.000000 0.000000
vn 0.000000 1.000000 0.000000
vn 0.000000 1.000000 0.000000
vn 0.000000 1.000000 0.000000
vn 0.000000 1.000000 0.000000
vn 0.000000 1.000000 0.000000
vn 0.000000 1.000000 0.000000
vn 0.000000 1.000000 0.000000
vn 0.000000 1.000000 0.000000
vn 0.000000 1.000000 0.000000
vn 0.000000 1.000000 0.000000
s off
g polySurface5
usemtl Asset4_1:initialShadingGroup
f 1/1/1 2/2/2 3/3/3 4/4/4
f 5/5/5 6/6/6 7/7/7 8/8/8
f 9/9/9 10/10/10 11/11/11 12/12/12
f 13/13/13 14/14/14 15/15/15 16/16/16
f 17/17/17 18/18/18 19/19/19 20/20/20
f 21/21/21 22/22/22 23/23/23 24/24/24
